<?xml version="1.0" encoding="UTF-8"?>
<svg version="1.1"
  xmlns="http://www.w3.org/2000/svg" baseProfile="full" height="400px" width="400px" viewBox="0 0 120 120">

  <g class="weak-edges x">
    <line class="edge-a-b edge-x" x1="10" y1="15" x2="10" y2="25" />
    <line class="edge-b-m edge-x" x1="10" y1="35" x2="10" y2="85" />
  </g>
  <g class="weak-edges y">
    <line class="edge-a-b edge-y" x1="60" y1="15" x2="60" y2="25" />
    <line class="edge-b-c edge-y" x1="60" y1="35" x2="60" y2="45" />
    <line class="edge-c-d edge-y" x1="60" y1="55" x2="60" y2="65" />
  </g>
  <g class="weak-edges z">
    <line class="edge-c-d edge-z" x1="110" y1="55" x2="110" y2="65" />
    <line class="edge-d-n edge-z" x1="110" y1="75" x2="110" y2="105" />
  </g>
  <g class="class-x">
    <g class="prop-a">
      <circle r="5" cx="10" cy="10" class="vert" />
      <text x="0" y="15" class="label">(x, a)</text>
    </g>
    <g class="prop-b">
      <circle r="5" cx="10" cy="30" class="vert" />
      <text x="0" y="35" class="label">(x, b)</text>
    </g>
    <g class="prop-m">
      <circle r="5" cx="10" cy="90" class="vert" />
      <text x="0" y="95" class="label">(x, m)</text>
    </g>
  </g>
  <g class="class-y">
    <g class="prop-a">
      <circle r="5" cx="60" cy="10" class="vert" />
      <text x="50" y="15" class="label">(y, a)</text>
    </g>
    <g class="prop-b">
      <circle r="5" cx="60" cy="30" class="vert" />
      <text x="50" y="35" class="label">(y, b)</text>
    </g>
    <g class="prop-c">
      <circle r="5" cx="60" cy="50" class="vert" />
      <text x="50" y="55" class="label">(y, c)</text>
    </g>
    <g class="prop-d">
      <circle r="5" cx="60" cy="70" class="vert" />
      <text x="50" y="75" class="label">(y, d)</text>
    </g>
  </g>
  <g class="class-z">
    <g class="prop-b">
      <circle r="5" cx="110" cy="30" class="vert" />
      <text x="100" y="35" class="label">(z, b)</text>
    </g>
    <g class="prop-c">
      <circle r="5" cx="110" cy="50" class="vert" />
      <text x="100" y="55" class="label">(z, c)</text>
    </g>
    <g class="prop-d">
      <circle r="5" cx="110" cy="70" class="vert" />
      <text x="100" y="75" class="label">(z, d)</text>
    </g>
    <g class="prop-n">
      <circle r="5" cx="110" cy="110" class="vert" />
      <text x="100" y="115" class="label">(z, n)</text>
    </g>
  </g>
  <g class="strong-edges">
    <line class="edge-x-y edge-a" x1="20" y1="10" x2="50" y2="10" />
    <line class="edge-x-y edge-b" x1="20" y1="30" x2="50" y2="30" />
    <line class="edge-y-z edge-b" x1="70" y1="30" x2="100" y2="30" />
    <line class="edge-y-z edge-c" x1="70" y1="50" x2="100" y2="50" />
    <line class="edge-y-z edge-d" x1="70" y1="70" x2="100" y2="70" />
  </g>

  <style>
  .strong-edges { stroke-width: 2px; stroke: black; }
  .weak-edges { stroke-width: 10px; stroke: rgba(0, 0, 0, 0.1); }
  .weak-edges.x { stroke: rgba(255, 0, 0, 0.1); }
  .weak-edges.y { stroke: rgba(0, 0, 255, 0.1); }
  .weak-edges.z { stroke: rgba(0, 255, 0, 0.1); }
  .vert { stroke-width: 2px; stroke: gray; }
  .label { font-size: 6pt; fill: black; font-family: arial }
  .class-x .vert { fill: red; }
  .class-y .vert { fill: blue; }
  .class-z .vert { fill: green; }
  @media (prefers-color-scheme: dark) {
    .label { fill: white; color: white; }
    .vert { stroke: #777; }
    .strong-edges   { stroke: white; }
    .weak-edges  { stroke: rgba(255, 255, 255, 0.1); }
  }
  @media (prefers-color-scheme: light) {
    .label { fill: black; color: black; }
    .strong-edges  { stroke: black; }
    .weak-edges  { stroke: rgba(0, 0, 0, 0.1); }
  }
  </style>
</svg>